<?xml version="1.0" encoding="UTF-8" standalone="no"?>
<!-- Created with Inkscape (http://www.inkscape.org/) -->

<svg
   xmlns:dc="http://purl.org/dc/elements/1.1/"
   xmlns:cc="http://creativecommons.org/ns#"
   xmlns:rdf="http://www.w3.org/1999/02/22-rdf-syntax-ns#"
   xmlns:svg="http://www.w3.org/2000/svg"
   xmlns="http://www.w3.org/2000/svg"
   xmlns:sodipodi="http://sodipodi.sourceforge.net/DTD/sodipodi-0.dtd"
   xmlns:inkscape="http://www.inkscape.org/namespaces/inkscape"
   width="22.748522mm"
   height="9.5845947mm"
   viewBox="0 0 22.748521 9.5845947"
   version="1.1"
   id="svg8"
   sodipodi:docname="dpeatland_icon.svg"
   inkscape:version="0.92.3 (2405546, 2018-03-11)"
   inkscape:export-filename="G:\phd\pmird\analysis\figures\pmird_icon.png"
   inkscape:export-xdpi="299.95541"
   inkscape:export-ydpi="299.95541">
  <defs
     id="defs2">
    <clipPath
       id="clipPath855"
       clipPathUnits="userSpaceOnUse">
      <path
         inkscape:connector-curvature="0"
         id="path853"
         d="M 0,0 H 324 V 216 H 0 Z" />
    </clipPath>
    <clipPath
       id="clipPath867"
       clipPathUnits="userSpaceOnUse">
      <path
         inkscape:connector-curvature="0"
         id="path865"
         d="M 40.98,37.38 H 318.52 V 210.52 H 40.98 Z" />
    </clipPath>
  </defs>
  <sodipodi:namedview
     id="base"
     pagecolor="#ffffff"
     bordercolor="#666666"
     borderopacity="1.0"
     inkscape:pageopacity="0.0"
     inkscape:pageshadow="2"
     inkscape:zoom="1.4142136"
     inkscape:cx="47.541163"
     inkscape:cy="70.949119"
     inkscape:document-units="mm"
     inkscape:current-layer="layer1"
     showgrid="false"
     inkscape:window-width="1920"
     inkscape:window-height="1001"
     inkscape:window-x="-9"
     inkscape:window-y="-9"
     inkscape:window-maximized="1"
     inkscape:object-paths="false"
     inkscape:snap-bbox="false"
     inkscape:snap-smooth-nodes="true"
     fit-margin-top="0"
     fit-margin-left="0"
     fit-margin-right="0"
     fit-margin-bottom="0"
     inkscape:snap-global="true"
     inkscape:snap-object-midpoints="true" />
  <metadata
     id="metadata5">
    <rdf:RDF>
      <cc:Work
         rdf:about="">
        <dc:format>image/svg+xml</dc:format>
        <dc:type
           rdf:resource="http://purl.org/dc/dcmitype/StillImage" />
        <dc:title></dc:title>
      </cc:Work>
    </rdf:RDF>
  </metadata>
  <g
     inkscape:label="Layer 1"
     inkscape:groupmode="layer"
     id="layer1"
     transform="translate(-69.701899,-0.66473979)">
    <g
       id="g829"
       transform="matrix(0.35277777,0,0,-0.35277777,79.825635,87.474782)" />
    <g
       id="g831"
       transform="matrix(0.35277777,0,0,-0.35277777,79.825635,87.474782)" />
    <g
       id="g833"
       transform="matrix(0.35277777,0,0,-0.35277777,79.825635,87.474782)" />
    <g
       id="g835"
       transform="matrix(0.35277777,0,0,-0.35277777,79.825635,87.474782)" />
    <g
       id="g837"
       transform="matrix(0.35277777,0,0,-0.35277777,79.825635,87.474782)" />
    <g
       id="g839"
       transform="matrix(0.35277777,0,0,-0.35277777,79.825635,87.474782)" />
    <g
       id="g841"
       transform="matrix(0.35277777,0,0,-0.35277777,79.825635,87.474782)" />
    <g
       id="g843"
       transform="matrix(0.35277777,0,0,-0.35277777,79.825635,87.474782)" />
    <g
       id="g845"
       transform="matrix(0.35277777,0,0,-0.35277777,79.825635,87.474782)" />
    <g
       id="g847"
       transform="matrix(0.35277777,0,0,-0.35277777,79.825635,87.474782)" />
    <g
       id="g859"
       transform="matrix(0.35277777,0,0,-0.35277777,79.825635,87.474782)" />
    <g
       id="g873"
       transform="matrix(0.35277777,0,0,-0.35277777,79.825635,87.474782)" />
    <g
       id="g875"
       transform="matrix(0.35277777,0,0,-0.35277777,79.825635,87.474782)" />
    <g
       id="g877"
       transform="matrix(0.35277777,0,0,-0.35277777,79.825635,87.474782)" />
    <g
       id="g879"
       transform="matrix(0.35277777,0,0,-0.35277777,79.825635,87.474782)" />
    <g
       id="g881"
       transform="matrix(0.35277777,0,0,-0.35277777,79.825635,87.474782)" />
    <g
       id="g883"
       transform="matrix(0.35277777,0,0,-0.35277777,79.825635,87.474782)" />
    <g
       id="g885"
       transform="matrix(0.35277777,0,0,-0.35277777,79.825635,87.474782)" />
    <g
       id="g887"
       transform="matrix(0.35277777,0,0,-0.35277777,79.825635,87.474782)" />
    <g
       id="g889"
       transform="matrix(0.35277777,0,0,-0.35277777,79.825635,87.474782)" />
    <g
       id="g891"
       transform="matrix(0.35277777,0,0,-0.35277777,79.825635,87.474782)" />
    <g
       id="g893"
       transform="matrix(0.35277777,0,0,-0.35277777,79.825635,87.474782)" />
    <g
       id="g895"
       transform="matrix(0.35277777,0,0,-0.35277777,79.825635,87.474782)" />
    <g
       id="g901"
       transform="matrix(0.35277777,0,0,-0.35277777,79.825635,87.474782)" />
    <g
       id="g903"
       transform="matrix(0.35277777,0,0,-0.35277777,79.825635,87.474782)" />
    <g
       id="g923"
       transform="matrix(0.35277777,0,0,-0.35277777,79.825635,87.474782)" />
    <g
       id="g935"
       transform="matrix(0.35277777,0,0,-0.35277777,79.825635,87.474782)" />
    <g
       id="g937"
       transform="matrix(0.35277777,0,0,-0.35277777,79.825635,87.474782)" />
    <g
       id="g939"
       transform="matrix(0.35277777,0,0,-0.35277777,79.825635,87.474782)" />
    <g
       id="g941"
       transform="matrix(0.35277777,0,0,-0.35277777,79.825635,87.474782)" />
    <g
       id="g943"
       transform="matrix(0.35277777,0,0,-0.35277777,79.825635,87.474782)" />
    <g
       id="g945"
       transform="matrix(0.35277777,0,0,-0.35277777,79.825635,87.474782)" />
    <g
       id="g951"
       transform="matrix(0.35277777,0,0,-0.35277777,79.825635,87.474782)" />
    <g
       id="g953"
       transform="matrix(0.35277777,0,0,-0.35277777,79.825635,87.474782)" />
    <g
       id="g965"
       transform="matrix(0.35277777,0,0,-0.35277777,79.825635,87.474782)" />
    <g
       id="g985"
       transform="matrix(0.35277777,0,0,-0.35277777,79.825635,87.474782)" />
    <g
       id="g987"
       transform="matrix(0.35277777,0,0,-0.35277777,79.825635,87.474782)" />
    <g
       id="g989"
       transform="matrix(0.35277777,0,0,-0.35277777,79.825635,87.474782)" />
    <g
       id="g991"
       transform="matrix(0.35277777,0,0,-0.35277777,79.825635,87.474782)" />
    <g
       id="g993"
       transform="matrix(0.35277777,0,0,-0.35277777,79.825635,87.474782)" />
    <g
       id="g1021"
       transform="matrix(0.35277777,0,0,-0.35277777,79.825635,87.474782)" />
    <g
       id="g1029"
       transform="matrix(0.35277777,0,0,-0.35277777,79.825635,87.474782)" />
    <g
       id="g1031"
       transform="matrix(0.35277777,0,0,-0.35277777,79.825635,87.474782)" />
    <g
       id="g1033"
       transform="matrix(0.35277777,0,0,-0.35277777,79.825635,87.474782)" />
    <g
       id="g1035"
       transform="matrix(0.35277777,0,0,-0.35277777,79.825635,87.474782)" />
    <g
       id="g1037"
       transform="matrix(0.35277777,0,0,-0.35277777,79.825635,87.474782)" />
    <g
       id="g1039"
       transform="matrix(0.35277777,0,0,-0.35277777,79.825635,87.474782)" />
    <g
       id="g1041"
       transform="matrix(0.35277777,0,0,-0.35277777,79.825635,87.474782)" />
    <g
       id="g1043"
       transform="matrix(0.35277777,0,0,-0.35277777,79.825635,87.474782)" />
    <g
       id="g1045"
       transform="matrix(0.35277777,0,0,-0.35277777,79.825635,87.474782)" />
    <g
       id="g1047"
       transform="matrix(0.35277777,0,0,-0.35277777,79.825635,87.474782)" />
    <g
       id="g1049"
       transform="matrix(0.35277777,0,0,-0.35277777,79.825635,87.474782)" />
    <g
       id="g1051"
       transform="matrix(0.35277777,0,0,-0.35277777,79.825635,87.474782)" />
    <g
       id="g936">
      <text
         id="text903"
         y="9.6655664"
         x="69.079025"
         style="font-style:normal;font-variant:normal;font-weight:normal;font-stretch:normal;font-size:11.28888893px;line-height:1.25;font-family:sans-serif;-inkscape-font-specification:sans-serif;text-align:start;letter-spacing:0px;word-spacing:0px;text-anchor:start;fill:#000000;fill-opacity:1;stroke:none;stroke-width:0.26458332"
         xml:space="preserve"><tspan
           style="text-align:start;text-anchor:start;stroke-width:0.26458332"
           y="9.6655664"
           x="69.079025"
           id="tspan901"
           sodipodi:role="line">d</tspan></text>
      <g
         id="g924">
        <text
           xml:space="preserve"
           style="font-style:normal;font-variant:normal;font-weight:normal;font-stretch:normal;font-size:3.88055563px;line-height:1.25;font-family:sans-serif;-inkscape-font-specification:sans-serif;text-align:start;letter-spacing:0px;word-spacing:0px;text-anchor:start;fill:#000000;fill-opacity:1;stroke:none;stroke-width:0.26458332"
           x="75.66626"
           y="6.373734"
           id="text907"><tspan
             sodipodi:role="line"
             id="tspan905"
             x="75.66626"
             y="6.373734"
             style="text-align:start;text-anchor:start;stroke-width:0.26458332">peatland</tspan></text>
        <text
           xml:space="preserve"
           style="font-style:normal;font-variant:normal;font-weight:normal;font-stretch:normal;font-size:3.17499995px;line-height:1.25;font-family:sans-serif;-inkscape-font-specification:sans-serif;text-align:start;letter-spacing:0px;word-spacing:0px;text-anchor:start;fill:#000000;fill-opacity:1;stroke:none;stroke-width:0.26458332"
           x="75.828011"
           y="3.0769956"
           id="text911"><tspan
             sodipodi:role="line"
             id="tspan909"
             x="75.828011"
             y="3.0769956"
             style="text-align:start;text-anchor:start;fill:#878787;fill-opacity:1;stroke-width:0.26458332">ata for</tspan></text>
        <text
           xml:space="preserve"
           style="font-style:normal;font-variant:normal;font-weight:normal;font-stretch:normal;font-size:3.17499995px;line-height:1.25;font-family:sans-serif;-inkscape-font-specification:sans-serif;text-align:end;letter-spacing:0px;word-spacing:0px;text-anchor:end;fill:#878787;fill-opacity:1;stroke:none;stroke-width:0.26458332"
           x="90.526337"
           y="9.5889101"
           id="text915"><tspan
             sodipodi:role="line"
             id="tspan913"
             x="90.526337"
             y="9.5889101"
             style="fill:#878787;fill-opacity:1;stroke-width:0.26458332">modeling</tspan></text>
      </g>
    </g>
  </g>
</svg>
